<svg width="30" height="30" viewBox="0 0 30 30" fill="none" xmlns="http://www.w3.org/2000/svg">
<g clip-path="url(#clip0_200_522)">
<path d="M1 5C1 3.34315 2.34315 2 4 2H10C11.6569 2 13 3.34315 13 5V11C13 12.6569 11.6569 14 10 14H4C2.34315 14 1 12.6569 1 11V5Z" stroke="black" stroke-width="2"/>
<path d="M1 21C1 19.3431 2.34315 18 4 18H10C11.6569 18 13 19.3431 13 21V27C13 28.6569 11.6569 30 10 30H4C2.34315 30 1 28.6569 1 27V21Z" stroke="black" stroke-width="2"/>
<path d="M17 5C17 3.34315 18.3431 2 20 2H26C27.6569 2 29 3.34315 29 5V11C29 12.6569 27.6569 14 26 14H20C18.3431 14 17 12.6569 17 11V5Z" stroke="black" stroke-width="2"/>
<path d="M17 21C17 19.3431 18.3431 18 20 18H26C27.6569 18 29 19.3431 29 21V27C29 28.6569 27.6569 30 26 30H20C18.3431 30 17 28.6569 17 27V21Z" stroke="black" stroke-width="2"/>
</g>
<defs>
<clipPath id="clip0_200_522">
<rect width="30" height="30" fill="white"/>
</clipPath>
</defs>
</svg>
